<?xml version="1.0" encoding="utf-8"?>
<!-- Generator: Adobe Illustrator 16.0.2, SVG Export Plug-In . SVG Version: 6.00 Build 0)  -->
<!DOCTYPE svg PUBLIC "-//W3C//DTD SVG 1.1//EN" "http://www.w3.org/Graphics/SVG/1.1/DTD/svg11.dtd">
<svg version="1.1" id="圖層_1" xmlns="http://www.w3.org/2000/svg" xmlns:xlink="http://www.w3.org/1999/xlink" x="0px" y="0px"
	 width="340.158px" height="340.158px" viewBox="0 0 340.158 340.158" enable-background="new 0 0 340.158 340.158"
	 xml:space="preserve">
<path fill="#444444" d="M157.674,282.12c-60.945,0-110.352-49.405-110.352-110.353c0-60.945,49.407-110.354,110.352-110.354
	c19.927,0,38.613,5.272,54.769,14.543l13.72-24.01c-20.182-11.565-43.565-18.17-68.486-18.17
	c-76.195,0-137.99,61.796-137.99,137.992c0,76.193,61.795,137.988,137.99,137.988c50.686,0,94.99-27.324,118.971-68.059
	l-23.811-14.002C233.645,260.27,198.211,282.12,157.674,282.12z"/>
<path fill="#444444" stroke="#599AB9" stroke-miterlimit="10" d="M252.836,227.696l-20.81-12.226
	c4.896-8.285,8.413-17.467,10.308-27.229c1.031-5.336,1.6-10.838,1.6-16.479c0-21.547-7.926-41.229-20.981-56.338
	c-6.379-7.377-13.957-13.683-22.474-18.552l11.965-20.919l13.72-24.01l12.303-21.543c48.979,28.034,82.007,80.843,82.007,141.364
	c0,30.104-8.163,58.31-22.422,82.486l-21.4-12.557L252.836,227.696z"/>
</svg>
